<svg width="26" height="18" fill="none" xmlns="http://www.w3.org/2000/svg"><path d="M13.074 4.31c-.64 0-1.252.127-1.834.38a4.834 4.834 0 00-1.502 1.007 4.819 4.819 0 00-1.01 1.498 4.599 4.599 0 000 3.67c.255.59.591 1.094 1.01 1.511.418.418.919.749 1.502.995a4.677 4.677 0 001.834.368 4.687 4.687 0 004.1-2.333c.418-.72.627-1.514.627-2.382 0-1.293-.46-2.402-1.379-3.327-.919-.924-2.035-1.387-3.348-1.387zm0 7.857a3.084 3.084 0 01-1.576-.43 3.223 3.223 0 01-1.17-1.153A3.042 3.042 0 019.899 9a3.157 3.157 0 01.923-2.222 3.166 3.166 0 012.228-.92c.87 0 1.613.306 2.229.92.615.614.923 1.354.923 2.222 0 .867-.304 1.612-.911 2.234a2.98 2.98 0 01-2.216.933zm12.532-3.339a.202.202 0 00-.012-.061.2.2 0 01-.013-.062.053.053 0 00-.012-.037l-.012-.012v-.024l-.025-.05c-1.116-2.57-2.807-4.587-5.072-6.052C18.195 1.065 15.725.333 13.05.333a13.76 13.76 0 00-5.073.957 13.654 13.654 0 00-4.42 2.836A13.608 13.608 0 00.444 8.583v.06l-.024.038v.073l-.025.05a1.473 1.473 0 00-.025.22c0 .033.004.066.013.099a.403.403 0 01.012.098c0 .016.008.04.025.074v.049l.012.037.012.012v.073c1.133 2.57 2.836 4.58 5.11 6.028A13.59 13.59 0 0013 17.667a13.81 13.81 0 005.06-.945c1.617-.63 3.081-1.567 4.395-2.811a13.254 13.254 0 003.077-4.445c.017 0 .025-.008.025-.024v-.037l.012-.024.012-.013v-.073l.025-.05c.016-.098.025-.171.025-.22a.403.403 0 00-.013-.099.403.403 0 01-.012-.098zM13 16.096c-2.33 0-4.49-.61-6.475-1.83-1.986-1.219-3.497-2.966-4.53-5.242 1.033-2.275 2.552-4.03 4.554-5.266 2.003-1.236 4.17-1.854 6.5-1.854 1.51 0 2.959.262 4.346.786 1.387.523 2.663 1.33 3.829 2.418 1.165 1.089 2.092 2.394 2.782 3.916-1.034 2.276-2.544 4.023-4.53 5.243A12.147 12.147 0 0113 16.096z" fill="#fff"/></svg>