<svg width="189" height="56" fill="none" xmlns="http://www.w3.org/2000/svg"><path d="M39.455 54.094l-1.93-40.464c-.035-.743.442-1.37 1.045-1.37h3.858c.603 0 1.08.627 1.045 1.37l-1.93 40.464c-.075 1.624-2.011 1.624-2.088 0z" fill="url(#paint0_linear_12_136)"/><path d="M40.5 10.005c2.655 0 4.807-2.167 4.807-4.839 0-2.672-2.152-4.838-4.808-4.838-2.655 0-4.807 2.166-4.807 4.838s2.152 4.839 4.807 4.839z" fill="url(#paint1_radial_12_136)"/><path d="M43.584 13.81h-6.169a1.15 1.15 0 01-1.145-1.153 1.15 1.15 0 011.145-1.153h6.169a1.15 1.15 0 011.145 1.153 1.15 1.15 0 01-1.145 1.153z" fill="#00868A"/><path d="M80.53 24.61L51.98 13.376a.733.733 0 00-.78.15c-2.787 2.686-6.946 3.505-10.074 3.705-.209.013-.418.02-.626.02v8.767c2.005 0 4.011.608 5.732 1.822 1.332.94 2.622 1.904 3.758 2.78a10.653 10.653 0 009.358 1.83.747.747 0 00.217-1.337l-8.472-5.48c-.771-.522-.079-1.707.75-1.283l10.972 6.63a.736.736 0 00.527.056l5.776-1.55c.658-.177.751-1.078.143-1.386L54.96 21.853c-.838-.425-.28-1.698.597-1.362l17.904 7.494a.735.735 0 00.536-.003l6.534-1.984c.625-.25.625-1.14 0-1.389z" fill="url(#paint2_linear_12_136)"/><path d="M39.873 17.232c-3.128-.2-7.287-1.019-10.074-3.704a.733.733 0 00-.779-.15L.47 24.608c-.626.248-.626 1.14-.002 1.387l6.534 1.984c.172.069.363.07.536.004l17.904-7.495c.876-.336 1.434.938.597 1.363l-14.3 6.247c-.609.309-.516 1.21.142 1.386l5.776 1.55a.739.739 0 00.527-.056l10.973-6.63c.828-.424 1.521.761.75 1.284l-8.473 5.48a.747.747 0 00.217 1.337c3.233.897 6.697.221 9.359-1.83a111.646 111.646 0 013.757-2.78 9.933 9.933 0 015.732-1.822V17.25c-.208 0-.417-.006-.626-.019z" fill="url(#paint3_linear_12_136)"/><path d="M38.442 32.866c-1.274-.134-2.483-.267-3.665-.52-2.162-.463-3.796-1.322-4.483-2.357-1.003-1.512.124-3.46 1.756-4.603.46-.322.573-.956.253-1.42a1.01 1.01 0 00-1.41-.254c-2.85 1.995-3.81 5.11-2.285 7.41 1.272 1.917 3.827 2.809 5.747 3.22.103.022.206.041.308.062 1.138-.574 2.469-.823 3.803-1.02l-.024-.518z" fill="url(#paint4_linear_12_136)"/><path d="M42.041 43.684c.957.286 1.588.682 1.791 1.148.144.33-.03.743-.43 1.028-.376.268-.932.417-1.485.423l-.097 2.042h.074c.976 0 1.947-.279 2.679-.8 1.189-.845 1.648-2.29 1.115-3.511a3.326 3.326 0 00-1.034-1.298 16.23 16.23 0 01-2.589.476l-.023.492z" fill="url(#paint5_linear_12_136)"/><path d="M47.47 35.151a5.579 5.579 0 00-1.135-.747c-1.24.245-2.507.38-3.734.509l-.142.015-.024.504c1.49.226 2.845.519 3.72 1.271.52.448.822 1.046.825 1.641.002.502-.208.951-.607 1.302-.84.738-2.254 1.236-4.209 1.481-.28.036-.57.065-.87.09-.274.022-.538.05-.794.082a14.08 14.08 0 00-1.641.297c-1.054.263-1.893.636-2.512 1.12a3.307 3.307 0 00-1.035 1.298c-.531 1.222-.072 2.666 1.116 3.512.731.52 1.703.8 2.678.8l.075-.001-.097-2.042c-.553-.005-1.109-.155-1.485-.423-.401-.285-.573-.699-.43-1.029.203-.465.835-.86 1.791-1.147.447-.134.964-.244 1.542-.327.304-.044.623-.08.959-.108.207-.016.408-.037.606-.058a16.206 16.206 0 002.589-.476c1.278-.356 2.29-.863 3.052-1.533.844-.741 1.307-1.753 1.3-2.849-.008-1.19-.568-2.35-1.538-3.182z" fill="url(#paint6_linear_12_136)"/><path d="M50.107 23.712a1.01 1.01 0 00-1.411.255 1.024 1.024 0 00.253 1.42c1.632 1.142 2.759 3.09 1.756 4.602-.686 1.035-2.321 1.894-4.483 2.357-1.181.253-2.39.385-3.665.52l-.166.017a79.31 79.31 0 00-1.892.214c-.217.029-.434.058-.65.09-.228.034-.457.065-.686.097l-.696.1c-1.334.197-2.666.446-3.803 1.019a5.581 5.581 0 00-1.135.747c-.97.834-1.53 1.993-1.536 3.182-.006 1.096.456 2.108 1.3 2.85.763.669 1.773 1.176 3.053 1.532.62-.483 1.458-.857 2.512-1.12l-.022-.468c-1.955-.246-3.369-.744-4.21-1.481-.398-.352-.608-.801-.605-1.302.003-.596.303-1.194.824-1.642.876-.752 2.23-1.044 3.72-1.27.289-.044.582-.086.878-.127l.7-.1c.118-.018.238-.033.356-.05.649-.087 1.31-.16 1.96-.228l.141-.015c1.228-.129 2.495-.264 3.734-.51l.308-.061c1.92-.41 4.475-1.304 5.747-3.22 1.526-2.297.566-5.413-2.282-7.408z" fill="url(#paint7_linear_12_136)"/><path d="M123.289 14.156l.168.153v.934l-.15.133c-1.364.039-2.211.11-2.539.21-.328.101-.561.27-.697.504-.136.235-.215.695-.233 1.38-.019.686-.053 2.624-.103 5.81v8.784c0 1.27.019 2.705.056 4.305.037 1.6.114 2.532.233 2.791.118.26.332.451.641.571.31.12 1.192.2 2.642.239l.15.134v.933l-.168.153a94.92 94.92 0 00-5.284-.172c-1.018 0-2.748.057-5.191.172l-.168-.153v-.914l.15-.153c1.364-.038 2.211-.107 2.539-.21.328-.101.561-.27.697-.504.136-.235.217-.7.243-1.4.024-.698.056-2.629.093-5.79V18.081l-6.419 13.754a173.95 173.95 0 00-4.223 9.717H105a176.97 176.97 0 00-1.711-3.926L94.395 18.71v13.317c0 1.245.015 2.677.047 4.296.032 1.62.108 2.557.233 2.81.123.255.341.446.65.572.31.128 1.192.202 2.643.229l.149.153V41l-.168.172-1.191-.057a63.18 63.18 0 00-3.163-.096c-.397 0-1.879.05-4.446.153l-.15-.153v-.914l.15-.172c1.364-.025 2.207-.088 2.53-.191.322-.101.555-.273.697-.514.142-.24.224-.691.242-1.352.02-.66.047-2.61.084-5.848v-8.725c0-1.155-.014-2.563-.046-4.22-.032-1.657-.107-2.616-.224-2.877-.117-.26-.332-.455-.641-.58-.31-.127-1.192-.203-2.642-.23l-.15-.152v-.917l.168-.172c.856.063 2.01.096 3.46.096 1.366 0 2.555-.03 3.573-.096a156.913 156.913 0 002.996 6.688l7.052 14.822 6.363-13.584c1.725-3.67 2.884-6.312 3.479-7.926 1.191.063 2.362.096 3.516.096 1.041 0 2.268-.03 3.683-.096zm2.399.077l.149-.133c4.255.076 6.977.114 8.169.114 4.068 0 7.689-.038 10.864-.114l.093.133c-.309 1.22-.539 3.131-.688 5.736l-.112.152h-.912l-.167-.152c.013-.115.018-.216.018-.306 0-1.078-.08-2.108-.242-3.087-.781-.355-1.865-.588-3.246-.695-1.383-.107-2.422-.162-3.116-.162-.98 0-2.231.07-3.758.21l-.075 3.047-.056 3.486-.056 3.869a65.69 65.69 0 003.703.114c1.141 0 2.096-.038 2.866-.114.768-.077 1.219-.155 1.348-.24.13-.081.229-.24.298-.475.067-.234.127-.65.177-1.248l.075-1.182.149-.153h.856l.149.153a455.571 455.571 0 01-.093 4.172l.093 4.286-.149.153h-.856l-.149-.153-.131-1.143c-.112-.89-.192-1.42-.242-1.59a.833.833 0 00-.345-.448c-.181-.126-.641-.229-1.385-.305-.744-.077-1.768-.115-3.069-.115-.72 0-1.818.033-3.293.096-.061 1.067-.093 2.845-.093 5.334 0 2.668.032 4.63.093 5.887h3.423c3.015 0 4.9-.038 5.655-.115a7.313 7.313 0 002.159-.552c.112-.292.295-.968.548-2.03.254-1.059.401-1.723.438-1.99l.187-.134h.893l.149.133c-.112.546-.22 1.5-.326 2.859a45.873 45.873 0 00-.159 3.486l-.13.153c-2.37-.077-5.47-.115-9.302-.115l-5.06-.038c-1.178 0-2.407.05-3.684.153l-.149-.153v-.628l.149-.191c.731-.382 1.15-.619 1.256-.714.105-.096.193-1.207.261-3.334s.103-3.75.103-4.867v-6.99l-.019-4.324c0-.94-.013-1.705-.037-2.295-.024-.59-.069-1.012-.13-1.268-.062-.254-.135-.431-.215-.533a.917.917 0 00-.391-.257c-.181-.071-.487-.13-.921-.182l-1.414-.114-.149-.134v-.953h-.002zm22.474-.001l.15-.133c2.146.1 3.609.152 4.39.152l8.707-.19c2.48 0 4.514.238 6.103.714 1.588.475 2.998 1.302 4.232 2.476a11.8 11.8 0 012.81 4.095c.637 1.556.958 3.218.958 4.982 0 1.714-.291 3.41-.874 5.086a14.914 14.914 0 01-2.484 4.506c-1.072 1.327-2.295 2.398-3.665 3.21-1.371.813-2.745 1.355-4.121 1.628a21.643 21.643 0 01-4.223.409c-.967 0-2.791-.038-5.47-.115a80.579 80.579 0 00-1.749-.038c-.856 0-1.892.05-3.106.153l-.149-.153v-.628l.149-.19c.731-.383 1.15-.62 1.257-.715.104-.096.192-1.207.261-3.334.067-2.127.102-3.75.102-4.866v-6.988l-.019-4.325c0-.94-.013-1.705-.037-2.295-.024-.59-.069-1.012-.13-1.268-.062-.254-.135-.431-.215-.533a.91.91 0 00-.391-.257c-.179-.07-.487-.13-.921-.182l-1.414-.114-.149-.134v-.953h-.002zm6.884 24.863c1.266.254 2.722.382 4.372.382 2.89 0 5.2-.494 6.93-1.485 1.73-.991 3.023-2.457 3.878-4.401.856-1.944 1.285-4.134 1.285-6.572 0-3.595-.936-6.383-2.81-8.365-1.872-1.982-4.825-2.973-8.856-2.973-1.661 0-3.263.129-4.799.382a149.866 149.866 0 00-.149 7.05v5.981l.037 5.602c0 1.09.037 2.559.112 4.4zM178.189 14.1l2.325.076c1.526.051 2.525.076 2.997.076.421 0 2.202-.05 5.339-.152l.15.133v.953l-.15.134c-.855.024-1.515.063-1.982.114-.466.052-.803.147-1.014.287-.21.139-.35.465-.419.981-.069.514-.103 1.23-.103 2.144l-.037 4.382v8.82l.019 3.716c.013 1.436.048 2.362.111 2.782.062.42.151.7.271.839.117.139.345.257.678.353.336.095 1.16.168 2.475.22l.149.114v.953l-.149.152c-.062 0-1.155-.038-3.274-.114a78.78 78.78 0 00-2.066-.038c-.384 0-2.159.05-5.321.152l-.15-.152v-.953l.15-.115c1.154-.05 1.922-.114 2.306-.19.384-.077.641-.174.772-.297.13-.12.235-.378.317-.771.08-.393.127-1.27.14-2.63l.018-4.018V23.23l-.037-3.716c-.013-1.447-.047-2.38-.103-2.8-.056-.42-.143-.7-.261-.839-.117-.14-.345-.254-.678-.343-.336-.088-1.16-.159-2.474-.21l-.15-.134v-.955l.151-.133z" fill="#333"/><defs><linearGradient id="paint0_linear_12_136" x1="40.5" y1="55.312" x2="40.5" y2="12.261" gradientUnits="userSpaceOnUse"><stop stop-color="#4FBFA5"/><stop offset="1" stop-color="#006A65"/></linearGradient><linearGradient id="paint2_linear_12_136" x1="40.5" y1="23.082" x2="81" y2="23.082" gradientUnits="userSpaceOnUse"><stop stop-color="#4FBFA5"/><stop offset="1" stop-color="#00868A"/></linearGradient><linearGradient id="paint3_linear_12_136" x1="0" y1="23.082" x2="40.5" y2="23.082" gradientUnits="userSpaceOnUse"><stop stop-color="#4FBFA5"/><stop offset="1" stop-color="#00868A"/></linearGradient><linearGradient id="paint4_linear_12_136" x1="27.889" y1="28.966" x2="38.467" y2="28.966" gradientUnits="userSpaceOnUse"><stop stop-color="#4FBFA5"/><stop offset="1" stop-color="#00868A"/></linearGradient><linearGradient id="paint5_linear_12_136" x1="41.82" y1="45.52" x2="45.907" y2="45.52" gradientUnits="userSpaceOnUse"><stop stop-color="#00868A"/><stop offset="1" stop-color="#4FBFA5"/></linearGradient><linearGradient id="paint6_linear_12_136" x1="35.092" y1="41.364" x2="49.006" y2="41.364" gradientUnits="userSpaceOnUse"><stop stop-color="#00868A"/><stop offset="1" stop-color="#4FBFA5"/></linearGradient><linearGradient id="paint7_linear_12_136" x1="31.994" y1="33.122" x2="53.11" y2="33.122" gradientUnits="userSpaceOnUse"><stop stop-color="#4FBFA5"/><stop offset="1" stop-color="#00868A"/></linearGradient><radialGradient id="paint1_radial_12_136" cx="0" cy="0" r="1" gradientUnits="userSpaceOnUse" gradientTransform="matrix(4.80728 0 0 4.8382 39.31 4.501)"><stop stop-color="#4FBFA5"/><stop offset="1" stop-color="#00868A"/></radialGradient></defs></svg>